<?xml version="1.0" encoding="UTF-8"?>
<!DOCTYPE svg PUBLIC "-//W3C//DTD SVG 1.1//EN" "http://www.w3.org/Graphics/SVG/1.1/DTD/svg11.dtd">
<!-- Creator: CorelDRAW 2021 (64-Bit) -->
<svg xmlns="http://www.w3.org/2000/svg" xml:space="preserve" width="40.64mm" height="40.64mm" version="1.1" style="shape-rendering:geometricPrecision; text-rendering:geometricPrecision; image-rendering:optimizeQuality; fill-rule:evenodd; clip-rule:evenodd"
viewBox="0 0 4064 4064"
 xmlns:xlink="http://www.w3.org/1999/xlink"
 xmlns:xodm="http://www.corel.com/coreldraw/odm/2003">
 <defs>
  <style type="text/css">
   <![CDATA[
    .fil1 {fill:#982802}
    .fil0 {fill:#DB420C}
   ]]>
  </style>
 </defs>
 <g id="Capa_x0020_1">
  <metadata id="CorelCorpID_0Corel-Layer"/>
  <g id="_2296559012400">
   <path class="fil0" d="M2057.23 1227.68c123.41,0 210.39,12.42 303.91,43.38 162.21,53.71 311.48,149.34 422.21,280.51 12.22,14.48 25.48,34.3 36.03,48.64 50.39,68.5 61.38,85.58 96.61,174.32 97.09,244.54 72.73,366.28 72.73,630.01 0,237.07 0,474.13 0,711.2l152.39 0c0,-170.67 11.26,-1027.18 -11.66,-1156.73 -11.11,-62.76 -22.58,-101.61 -40.2,-154.53 -25.15,-75.51 -79.1,-197.58 -125.79,-263.68 -79.35,-112.32 -179.02,-215.87 -299.26,-284.94 -44.7,-25.67 -71.76,-52.26 -121.43,-73.3 -25.96,-11 -42,-13.21 -67.7,-25.43 -104.08,-49.47 -288.66,-81.85 -417.85,-81.85l0.01 152.4z"/>
   <polygon class="fil0" points="1142.99,3115.74 1303.86,3115.74 1303.86,1024.48 1142.99,1024.48 "/>
   <path class="fil0" d="M2054.85 1473.21c158.75,0 185.22,16.14 299.91,58.23 20.87,7.66 36.74,9.28 55.09,21.11l84.57 59.36c78.74,57.77 146.01,155.58 189.55,242.25 95.23,189.54 59.21,427.86 59.21,677.38 0,194.73 0,389.47 0,584.2l160.87 0c0,-220.13 0,-440.27 0,-660.4 0,-336.74 24.01,-520.86 -174.28,-816.31 -71.22,-106.11 -256.08,-234.65 -383.19,-277.21 -84.13,-28.17 -173.55,-41.01 -289.7,-41.01l-2.03 152.4z"/>
   <polygon class="fil0" points="1642.52,3115.74 1794.92,3115.74 1794.92,1024.48 1642.52,1024.48 "/>
   <polygon class="fil0" points="1396.99,3115.74 1549.39,3115.74 1549.39,1024.48 1396.99,1024.48 "/>
   <polygon class="fil0" points="905.93,3115.74 1058.32,3115.74 1058.32,1024.48 905.93,1024.48 "/>
   <path class="fil0" d="M2057.74 1710.28c118.62,0 243.96,51.91 323.64,133.2 13.4,13.67 13.07,13.87 23.14,27.66 11.3,15.46 16.42,18.06 27.15,32.12 54.39,71.32 74.62,189.12 74.45,281.15 -0.56,310.42 0,620.9 0,931.33l143.93 0c0,-155.86 10.08,-979.95 -6.37,-1060.42 -26.47,-129.45 -79.11,-265.48 -188.3,-345.1 -50.6,-36.9 -102.07,-79.64 -168.18,-102.76 -71.24,-24.91 -131.2,-41.11 -230.32,-41.11l0.86 143.93z"/>
   <path class="fil0" d="M2057 1955.81c96.36,7.87 178.7,55.35 193.71,145.35l1.41 1014.58 152.4 0 -1.44 -1023.03c-30.25,-176.19 -178.77,-280.83 -346.2,-280.83l0.12 143.93z"/>
   <path class="fil1" d="M2054.85 1473.21l2.03 -152.4c-206.28,0 -168.83,-8.25 -168.83,160.87 68.53,0 105.64,-8.47 166.8,-8.47z"/>
   <path class="fil1" d="M2057 1955.81l-0.12 -143.93c-87.88,0 -111.27,20.45 -168.83,33.86l0 177.8c49.3,-33.01 53.18,-57.91 168.95,-67.73z"/>
   <path class="fil1" d="M2057.23 1227.68l-0.01 -152.4c-49.96,0 -128.4,7.44 -169.17,16.93l0 143.94 169.18 -8.47z"/>
   <path class="fil1" d="M2057.74 1710.28l-0.86 -143.93c-70.3,0 -121.86,2.86 -168.83,25.4l0 143.93c42.75,-9.96 119.36,-25.4 169.69,-25.4z"/>
  </g>
 </g>
</svg>
